<svg width="1080" height="1080" viewBox="0 0 1080 1080" fill="none" xmlns="http://www.w3.org/2000/svg">
<g filter="url(#filter0_ddd_1_63)">
<rect width="1080" height="1080" fill="url(#paint0_linear_1_63)"/>
<rect x="2" y="2" width="1076" height="1076" stroke="black" stroke-width="4"/>
<path d="M287.054 627.198C286.46 628.401 284.745 628.401 284.151 627.198L264.75 587.886C264.077 586.523 262.777 585.578 261.272 585.36L217.889 579.056C216.561 578.863 216.032 577.232 216.992 576.296L248.385 545.696C249.473 544.635 249.97 543.106 249.713 541.608L242.302 498.399C242.075 497.077 243.463 496.069 244.65 496.693L283.454 517.093C284.799 517.8 286.407 517.8 287.752 517.093L326.556 496.693C327.743 496.069 329.13 497.077 328.903 498.399L321.493 541.608C321.236 543.106 321.733 544.635 322.821 545.696L354.214 576.296C355.174 577.232 354.644 578.863 353.317 579.056L309.934 585.36C308.429 585.578 307.129 586.523 306.456 587.886L287.054 627.198Z" fill="#C898BF" stroke="white" stroke-width="3"/>
<path d="M275.054 494.198C274.46 495.401 272.745 495.401 272.151 494.198L252.75 454.886C252.077 453.523 250.777 452.578 249.272 452.36L205.889 446.056C204.561 445.863 204.032 444.232 204.992 443.296L236.385 412.696C237.473 411.635 237.97 410.106 237.713 408.608L230.302 365.399C230.075 364.077 231.463 363.069 232.65 363.693L271.454 384.093C272.799 384.8 274.407 384.8 275.752 384.093L314.556 363.693C315.743 363.069 317.13 364.077 316.903 365.399L309.493 408.608C309.236 410.106 309.733 411.635 310.821 412.696L342.214 443.296C343.174 444.232 342.644 445.863 341.317 446.056L297.934 452.36C296.429 452.578 295.129 453.523 294.456 454.886L275.054 494.198Z" fill="#E9A88F" stroke="white" stroke-width="3"/>
<path d="M143.152 576.198C143.746 577.401 145.461 577.401 146.055 576.198L165.456 536.886C166.129 535.523 167.429 534.578 168.934 534.36L212.317 528.056C213.645 527.863 214.174 526.232 213.214 525.296L181.821 494.696C180.733 493.635 180.236 492.106 180.493 490.608L187.904 447.399C188.131 446.077 186.743 445.069 185.556 445.693L146.752 466.093C145.407 466.8 143.799 466.8 142.454 466.093L103.65 445.693C102.463 445.069 101.076 446.077 101.303 447.399L108.713 490.608C108.97 492.106 108.473 493.635 107.385 494.696L75.9922 525.296C75.0321 526.232 75.5616 527.863 76.8887 528.056L120.272 534.36C121.777 534.578 123.077 535.523 123.75 536.886L143.152 576.198Z" fill="#A390C6" stroke="white" stroke-width="3"/>
<path d="M180.152 586.402C180.746 585.2 182.461 585.2 183.055 586.402L202.456 625.715C203.129 627.078 204.429 628.023 205.934 628.241L249.317 634.545C250.645 634.738 251.174 636.368 250.214 637.305L218.821 667.905C217.733 668.966 217.236 670.495 217.493 671.993L224.904 715.202C225.131 716.524 223.743 717.532 222.556 716.908L183.752 696.508C182.407 695.801 180.799 695.801 179.454 696.508L140.65 716.908C139.463 717.532 138.076 716.524 138.303 715.202L145.713 671.993C145.97 670.495 145.473 668.966 144.385 667.905L112.992 637.305C112.032 636.369 112.562 634.738 113.889 634.545L157.272 628.241C158.777 628.023 160.077 627.078 160.75 625.715L180.152 586.402Z" fill="#7E8ADF" stroke="white" stroke-width="3"/>
<path d="M413.381 428.524C413.92 427.159 415.853 427.159 416.392 428.524L429.354 461.359C430.239 463.601 432.699 464.785 435.003 464.079L468.757 453.741C470.16 453.312 471.364 454.822 470.633 456.095L453.044 486.702C451.843 488.791 452.451 491.452 454.438 492.813L483.566 512.759C484.777 513.588 484.347 515.472 482.896 515.693L448 521.024C445.618 521.388 443.917 523.523 444.092 525.926L446.659 561.134C446.766 562.598 445.024 563.436 443.946 562.439L418.021 538.48C416.251 536.845 413.521 536.845 411.752 538.48L385.826 562.439C384.748 563.436 383.008 562.598 383.114 561.134L385.682 525.926C385.857 523.523 384.155 521.389 381.773 521.024L346.876 515.693C345.425 515.471 344.996 513.588 346.207 512.759L375.334 492.813C377.322 491.452 377.929 488.791 376.729 486.702L359.14 456.095C358.409 454.822 359.613 453.311 361.017 453.741L394.771 464.079C397.074 464.785 399.533 463.6 400.418 461.359L413.381 428.524Z" fill="#F4CBB5" fill-opacity="0.9" stroke="white" stroke-width="3"/>
<path d="M382.606 581.144C383.254 580.286 384.542 580.286 385.189 581.144L399.655 600.306C400.752 601.759 402.601 602.432 404.376 602.023L427.774 596.643C428.822 596.402 429.808 597.231 429.753 598.304L428.518 622.281C428.424 624.1 429.407 625.804 431.029 626.632L452.412 637.551C453.369 638.039 453.593 639.307 452.861 640.094L436.502 657.668C435.261 659.001 434.919 660.938 435.629 662.615L444.991 684.724C445.41 685.713 444.767 686.829 443.7 686.961L419.872 689.907C418.065 690.131 416.557 691.396 416.023 693.137L408.984 716.091C408.669 717.118 407.458 717.559 406.557 716.975L386.409 703.915C384.881 702.925 382.914 702.925 381.386 703.915L361.238 716.975C360.337 717.559 359.127 717.118 358.812 716.091L351.771 693.137C351.238 691.396 349.73 690.131 347.923 689.907L324.096 686.961C323.029 686.829 322.385 685.713 322.804 684.724L332.166 662.615C332.876 660.938 332.535 659.001 331.294 657.668L314.935 640.094C314.203 639.307 314.426 638.04 315.383 637.551L336.766 626.632C338.387 625.804 339.372 624.1 339.278 622.281L338.042 598.304C337.987 597.231 338.973 596.402 340.021 596.643L363.42 602.023C365.195 602.431 367.043 601.759 368.141 600.306L382.606 581.144Z" fill="#FFB29A" stroke="white" stroke-width="3"/>
<path d="M520.045 579V485.909H584.955V504.182H542.545V523.273H581.636V541.591H542.545V560.727H584.955V579H520.045ZM595.205 579V509.182H616.796V521.909H617.524C618.796 517.303 620.872 513.879 623.751 511.636C626.63 509.364 629.978 508.227 633.796 508.227C634.827 508.227 635.887 508.303 636.978 508.455C638.069 508.576 639.084 508.773 640.024 509.045V528.364C638.963 528 637.569 527.712 635.842 527.5C634.145 527.288 632.63 527.182 631.296 527.182C628.66 527.182 626.281 527.773 624.16 528.955C622.069 530.106 620.418 531.727 619.205 533.818C618.024 535.879 617.433 538.303 617.433 541.091V579H595.205ZM662.297 580.182C657.843 580.182 653.888 579.439 650.434 577.955C647.009 576.439 644.297 574.167 642.297 571.136C640.328 568.076 639.343 564.242 639.343 559.636C639.343 555.758 640.025 552.485 641.388 549.818C642.752 547.152 644.631 544.985 647.025 543.318C649.418 541.652 652.176 540.394 655.297 539.545C658.418 538.667 661.752 538.076 665.297 537.773C669.267 537.409 672.464 537.03 674.888 536.636C677.312 536.212 679.07 535.621 680.161 534.864C681.282 534.076 681.843 532.97 681.843 531.545V531.318C681.843 528.985 681.04 527.182 679.434 525.909C677.828 524.636 675.661 524 672.934 524C669.994 524 667.631 524.636 665.843 525.909C664.055 527.182 662.918 528.939 662.434 531.182L641.934 530.455C642.54 526.212 644.1 522.424 646.615 519.091C649.161 515.727 652.646 513.091 657.07 511.182C661.525 509.242 666.873 508.273 673.115 508.273C677.57 508.273 681.676 508.803 685.434 509.864C689.191 510.894 692.464 512.409 695.252 514.409C698.04 516.379 700.191 518.803 701.706 521.682C703.252 524.561 704.025 527.848 704.025 531.545V579H683.115V569.273H682.57C681.328 571.636 679.737 573.636 677.797 575.273C675.888 576.909 673.631 578.136 671.025 578.955C668.449 579.773 665.54 580.182 662.297 580.182ZM669.161 565.636C671.555 565.636 673.706 565.152 675.615 564.182C677.555 563.212 679.1 561.879 680.252 560.182C681.403 558.455 681.979 556.455 681.979 554.182V547.545C681.343 547.879 680.57 548.182 679.661 548.455C678.782 548.727 677.812 548.985 676.752 549.227C675.691 549.47 674.6 549.682 673.479 549.864C672.358 550.045 671.282 550.212 670.252 550.364C668.161 550.697 666.373 551.212 664.888 551.909C663.434 552.606 662.312 553.515 661.525 554.636C660.767 555.727 660.388 557.03 660.388 558.545C660.388 560.848 661.206 562.606 662.843 563.818C664.509 565.03 666.615 565.636 669.161 565.636ZM713.775 579V485.909H752.594C759.563 485.909 765.397 486.894 770.094 488.864C774.821 490.833 778.366 493.591 780.73 497.136C783.124 500.682 784.321 504.788 784.321 509.455C784.321 513 783.578 516.167 782.094 518.955C780.609 521.712 778.563 524 775.957 525.818C773.351 527.636 770.336 528.909 766.912 529.636V530.545C770.669 530.727 774.139 531.742 777.321 533.591C780.533 535.439 783.109 538.015 785.048 541.318C786.988 544.591 787.957 548.47 787.957 552.955C787.957 557.955 786.685 562.424 784.139 566.364C781.594 570.273 777.912 573.364 773.094 575.636C768.275 577.879 762.427 579 755.548 579H713.775ZM736.275 560.864H750.185C755.063 560.864 758.654 559.939 760.957 558.091C763.291 556.242 764.457 553.667 764.457 550.364C764.457 547.97 763.897 545.909 762.775 544.182C761.654 542.424 760.063 541.076 758.003 540.136C755.942 539.167 753.472 538.682 750.594 538.682H736.275V560.864ZM736.275 524.182H748.73C751.185 524.182 753.366 523.773 755.275 522.955C757.185 522.136 758.669 520.955 759.73 519.409C760.821 517.864 761.366 516 761.366 513.818C761.366 510.697 760.26 508.242 758.048 506.455C755.836 504.667 752.851 503.773 749.094 503.773H736.275V524.182ZM827.526 580.318C820.193 580.318 813.89 578.818 808.617 575.818C803.375 572.788 799.329 568.576 796.481 563.182C793.663 557.758 792.254 551.47 792.254 544.318C792.254 537.136 793.663 530.848 796.481 525.455C799.329 520.03 803.375 515.818 808.617 512.818C813.89 509.788 820.193 508.273 827.526 508.273C834.86 508.273 841.148 509.788 846.39 512.818C851.663 515.818 855.708 520.03 858.526 525.455C861.375 530.848 862.799 537.136 862.799 544.318C862.799 551.47 861.375 557.758 858.526 563.182C855.708 568.576 851.663 572.788 846.39 575.818C841.148 578.818 834.86 580.318 827.526 580.318ZM827.663 563.545C830.329 563.545 832.587 562.727 834.435 561.091C836.284 559.455 837.693 557.182 838.663 554.273C839.663 551.364 840.163 548 840.163 544.182C840.163 540.303 839.663 536.909 838.663 534C837.693 531.091 836.284 528.818 834.435 527.182C832.587 525.545 830.329 524.727 827.663 524.727C824.905 524.727 822.572 525.545 820.663 527.182C818.784 528.818 817.345 531.091 816.345 534C815.375 536.909 814.89 540.303 814.89 544.182C814.89 548 815.375 551.364 816.345 554.273C817.345 557.182 818.784 559.455 820.663 561.091C822.572 562.727 824.905 563.545 827.663 563.545ZM890.027 580.182C885.573 580.182 881.618 579.439 878.164 577.955C874.739 576.439 872.027 574.167 870.027 571.136C868.058 568.076 867.073 564.242 867.073 559.636C867.073 555.758 867.755 552.485 869.118 549.818C870.482 547.152 872.361 544.985 874.755 543.318C877.148 541.652 879.906 540.394 883.027 539.545C886.148 538.667 889.482 538.076 893.027 537.773C896.997 537.409 900.194 537.03 902.618 536.636C905.042 536.212 906.8 535.621 907.891 534.864C909.012 534.076 909.573 532.97 909.573 531.545V531.318C909.573 528.985 908.77 527.182 907.164 525.909C905.558 524.636 903.391 524 900.664 524C897.724 524 895.361 524.636 893.573 525.909C891.785 527.182 890.648 528.939 890.164 531.182L869.664 530.455C870.27 526.212 871.83 522.424 874.345 519.091C876.891 515.727 880.376 513.091 884.8 511.182C889.255 509.242 894.603 508.273 900.845 508.273C905.3 508.273 909.406 508.803 913.164 509.864C916.921 510.894 920.194 512.409 922.982 514.409C925.77 516.379 927.921 518.803 929.436 521.682C930.982 524.561 931.755 527.848 931.755 531.545V579H910.845V569.273H910.3C909.058 571.636 907.467 573.636 905.527 575.273C903.618 576.909 901.361 578.136 898.755 578.955C896.179 579.773 893.27 580.182 890.027 580.182ZM896.891 565.636C899.285 565.636 901.436 565.152 903.345 564.182C905.285 563.212 906.83 561.879 907.982 560.182C909.133 558.455 909.709 556.455 909.709 554.182V547.545C909.073 547.879 908.3 548.182 907.391 548.455C906.512 548.727 905.542 548.985 904.482 549.227C903.421 549.47 902.33 549.682 901.209 549.864C900.088 550.045 899.012 550.212 897.982 550.364C895.891 550.697 894.103 551.212 892.618 551.909C891.164 552.606 890.042 553.515 889.255 554.636C888.497 555.727 888.118 557.03 888.118 558.545C888.118 560.848 888.936 562.606 890.573 563.818C892.239 565.03 894.345 565.636 896.891 565.636ZM941.505 579V509.182H963.096V521.909H963.824C965.096 517.303 967.172 513.879 970.051 511.636C972.93 509.364 976.278 508.227 980.096 508.227C981.127 508.227 982.187 508.303 983.278 508.455C984.369 508.576 985.384 508.773 986.324 509.045V528.364C985.263 528 983.869 527.712 982.142 527.5C980.445 527.288 978.93 527.182 977.596 527.182C974.96 527.182 972.581 527.773 970.46 528.955C968.369 530.106 966.718 531.727 965.505 533.818C964.324 535.879 963.733 538.303 963.733 541.091V579H941.505ZM1013.42 580C1008.26 580 1003.58 578.667 999.37 576C995.158 573.333 991.794 569.333 989.279 564C986.764 558.667 985.506 552.045 985.506 544.136C985.506 535.924 986.809 529.167 989.415 523.864C992.022 518.561 995.431 514.636 999.643 512.091C1003.89 509.545 1008.45 508.273 1013.32 508.273C1016.99 508.273 1020.13 508.909 1022.73 510.182C1025.34 511.424 1027.49 513.03 1029.19 515C1030.89 516.97 1032.17 519.015 1033.05 521.136H1033.51V485.909H1055.73V579H1033.73V567.682H1033.05C1032.11 569.833 1030.78 571.848 1029.05 573.727C1027.32 575.606 1025.16 577.121 1022.55 578.273C1019.98 579.424 1016.93 580 1013.42 580ZM1021.14 562.682C1023.84 562.682 1026.14 561.924 1028.05 560.409C1029.96 558.864 1031.43 556.697 1032.46 553.909C1033.49 551.121 1034.01 547.848 1034.01 544.091C1034.01 540.273 1033.49 536.985 1032.46 534.227C1031.46 531.47 1029.99 529.348 1028.05 527.864C1026.14 526.379 1023.84 525.636 1021.14 525.636C1018.39 525.636 1016.05 526.394 1014.14 527.909C1012.23 529.424 1010.78 531.561 1009.78 534.318C1008.81 537.076 1008.32 540.333 1008.32 544.091C1008.32 547.848 1008.82 551.121 1009.82 553.909C1010.82 556.697 1012.26 558.864 1014.14 560.409C1016.05 561.924 1018.39 562.682 1021.14 562.682Z" fill="#F1F0FF" fill-opacity="0.9"/>
</g>
<defs>
<filter id="filter0_ddd_1_63" x="-8" y="-5" width="1096" height="1096" filterUnits="userSpaceOnUse" color-interpolation-filters="sRGB">
<feFlood flood-opacity="0" result="BackgroundImageFix"/>
<feColorMatrix in="SourceAlpha" type="matrix" values="0 0 0 0 0 0 0 0 0 0 0 0 0 0 0 0 0 0 127 0" result="hardAlpha"/>
<feOffset/>
<feGaussianBlur stdDeviation="0.25"/>
<feColorMatrix type="matrix" values="0 0 0 0 0 0 0 0 0 0 0 0 0 0 0 0 0 0 0.18 0"/>
<feBlend mode="normal" in2="BackgroundImageFix" result="effect1_dropShadow_1_63"/>
<feColorMatrix in="SourceAlpha" type="matrix" values="0 0 0 0 0 0 0 0 0 0 0 0 0 0 0 0 0 0 127 0" result="hardAlpha"/>
<feOffset dy="3"/>
<feGaussianBlur stdDeviation="4"/>
<feColorMatrix type="matrix" values="0 0 0 0 0 0 0 0 0 0 0 0 0 0 0 0 0 0 0.1 0"/>
<feBlend mode="normal" in2="effect1_dropShadow_1_63" result="effect2_dropShadow_1_63"/>
<feColorMatrix in="SourceAlpha" type="matrix" values="0 0 0 0 0 0 0 0 0 0 0 0 0 0 0 0 0 0 127 0" result="hardAlpha"/>
<feOffset dx="1" dy="3"/>
<feGaussianBlur stdDeviation="1.5"/>
<feColorMatrix type="matrix" values="0 0 0 0 0 0 0 0 0 0 0 0 0 0 0 0 0 0 0.1 0"/>
<feBlend mode="normal" in2="effect2_dropShadow_1_63" result="effect3_dropShadow_1_63"/>
<feBlend mode="normal" in="SourceGraphic" in2="effect3_dropShadow_1_63" result="shape"/>
</filter>
<linearGradient id="paint0_linear_1_63" x1="540" y1="0" x2="540" y2="1080" gradientUnits="userSpaceOnUse">
<stop stop-color="#C084FC"/>
<stop offset="1" stop-color="#67E8F9"/>
</linearGradient>
</defs>
</svg>
