<svg width="412" height="357" viewBox="0 0 412 357" fill="none" xmlns="http://www.w3.org/2000/svg">
<path d="M213.054 265.198C212.46 266.401 210.745 266.401 210.152 265.198L190.75 225.886C190.078 224.523 188.777 223.578 187.273 223.36L143.889 217.056C142.562 216.863 142.032 215.232 142.992 214.296L174.385 183.696C175.473 182.635 175.97 181.106 175.713 179.608L168.302 136.399C168.075 135.077 169.464 134.069 170.651 134.693L209.454 155.093C210.8 155.8 212.407 155.8 213.752 155.093L252.556 134.693C253.743 134.069 255.13 135.077 254.904 136.399L247.493 179.608C247.237 181.106 247.733 182.635 248.822 183.696L280.214 214.296C281.174 215.232 280.645 216.863 279.318 217.056L235.934 223.36C234.43 223.578 233.129 224.523 232.456 225.886L213.054 265.198Z" fill="#C898BF" stroke="white" stroke-width="3"/>
<path d="M201.054 132.198C200.46 133.401 198.745 133.401 198.152 132.198L178.75 92.886C178.078 91.523 176.777 90.5782 175.273 90.3596L131.889 84.0559C130.562 83.863 130.032 82.2323 130.992 81.2961L162.385 50.6956C163.473 49.6346 163.97 48.1057 163.713 46.6077L156.302 3.39868C156.075 2.07681 157.464 1.06852 158.651 1.69263L197.454 22.093C198.8 22.8003 200.407 22.8003 201.752 22.093L240.556 1.69263C241.743 1.0685 243.13 2.07678 242.904 3.39868L235.493 46.6077C235.237 48.1057 235.733 49.6346 236.822 50.6956L268.214 81.2961C269.174 82.2323 268.645 83.8629 267.318 84.0559L223.934 90.3596C222.43 90.5782 221.129 91.5231 220.456 92.886L201.054 132.198Z" fill="#E9A88F" stroke="white" stroke-width="3"/>
<path d="M69.1523 214.198C69.7459 215.401 71.4611 215.401 72.0547 214.198L91.4561 174.886C92.1288 173.523 93.4295 172.578 94.9336 172.36L138.317 166.056C139.645 165.863 140.174 164.232 139.214 163.296L107.821 132.696C106.733 131.635 106.236 130.106 106.493 128.608L113.904 85.3987C114.131 84.0768 112.743 83.0685 111.556 83.6926L72.752 104.093C71.4066 104.8 69.7995 104.8 68.4541 104.093L29.6504 83.6926C28.4632 83.0685 27.076 84.0768 27.3027 85.3987L34.7129 128.608C34.9698 130.106 34.4732 131.635 33.3848 132.696L1.99219 163.296C1.03206 164.232 1.56164 165.863 2.88867 166.056L46.2725 172.36C47.7766 172.578 49.0773 173.523 49.75 174.886L69.1523 214.198Z" fill="#A390C6" stroke="white" stroke-width="3"/>
<path d="M106.152 224.402C106.746 223.2 108.461 223.2 109.055 224.402L128.456 263.715C129.129 265.078 130.429 266.023 131.934 266.241L175.317 272.545C176.645 272.738 177.174 274.368 176.214 275.305L144.821 305.905C143.733 306.966 143.236 308.495 143.493 309.993L150.904 353.202C151.131 354.524 149.743 355.532 148.556 354.908L109.752 334.508C108.407 333.801 106.799 333.801 105.454 334.508L66.6504 354.908C65.4632 355.532 64.076 354.524 64.3027 353.202L71.7129 309.993C71.9698 308.495 71.4732 306.966 70.3848 305.905L38.9922 275.305C38.0321 274.369 38.5616 272.738 39.8887 272.545L83.2725 266.241C84.7766 266.023 86.0773 265.078 86.75 263.715L106.152 224.402Z" fill="#7E8ADF" stroke="white" stroke-width="3"/>
<path d="M339.381 66.5244C339.92 65.1591 341.853 65.1591 342.392 66.5244L355.354 99.3594C356.239 101.601 358.699 102.785 361.003 102.079L394.757 91.7412C396.16 91.3119 397.364 92.8222 396.633 94.0947L379.044 124.702C377.843 126.791 378.451 129.452 380.438 130.813L409.566 150.759C410.777 151.588 410.347 153.472 408.896 153.693L374 159.024C371.618 159.388 369.917 161.523 370.092 163.926L372.659 199.134C372.766 200.598 371.024 201.436 369.946 200.439L344.021 176.48C342.251 174.845 339.521 174.845 337.752 176.48L311.826 200.439C310.748 201.436 309.008 200.598 309.114 199.134L311.682 163.926C311.857 161.523 310.155 159.389 307.773 159.024L272.876 153.693C271.425 153.471 270.996 151.588 272.207 150.759L301.334 130.813C303.322 129.452 303.929 126.791 302.729 124.702L285.14 94.0947C284.409 92.8221 285.613 91.3114 287.017 91.7412L320.771 102.079C323.074 102.785 325.533 101.6 326.418 99.3594L339.381 66.5244Z" fill="#F4CBB5" fill-opacity="0.9" stroke="white" stroke-width="3"/>
<path d="M308.606 219.144C309.254 218.286 310.542 218.286 311.189 219.144L325.655 238.306C326.752 239.759 328.601 240.432 330.376 240.023L353.774 234.643C354.822 234.402 355.808 235.231 355.753 236.304L354.518 260.281C354.424 262.1 355.407 263.804 357.029 264.632L378.412 275.551C379.369 276.039 379.593 277.307 378.861 278.094L362.502 295.668C361.261 297.001 360.919 298.938 361.629 300.615L370.991 322.724C371.41 323.713 370.767 324.829 369.7 324.961L345.872 327.907C344.065 328.131 342.557 329.396 342.023 331.137L334.984 354.091C334.669 355.118 333.458 355.559 332.557 354.975L312.409 341.915C310.881 340.925 308.914 340.925 307.386 341.915L287.238 354.975C286.337 355.559 285.127 355.118 284.812 354.091L277.771 331.137C277.238 329.396 275.73 328.131 273.923 327.907L250.096 324.961C249.029 324.829 248.385 323.713 248.804 322.724L258.166 300.615C258.876 298.938 258.535 297.001 257.294 295.668L240.935 278.094C240.203 277.307 240.426 276.04 241.383 275.551L262.766 264.632C264.387 263.804 265.372 262.1 265.278 260.281L264.042 236.304C263.987 235.231 264.973 234.402 266.021 234.643L289.42 240.023C291.195 240.431 293.043 239.759 294.141 238.306L308.606 219.144Z" fill="#FFB29A" stroke="white" stroke-width="3"/>
</svg>
