<svg width="1080" height="1080" viewBox="0 0 1080 1080" fill="none" xmlns="http://www.w3.org/2000/svg">
<g filter="url(#filter0_ddd_1_55)">
<rect width="1080" height="1080" fill="url(#paint0_linear_1_55)"/>
<path d="M547.054 627.198C546.46 628.401 544.745 628.401 544.152 627.198L524.75 587.886C524.078 586.523 522.777 585.578 521.273 585.36L477.889 579.056C476.562 578.863 476.032 577.232 476.992 576.296L508.385 545.696C509.473 544.635 509.97 543.106 509.713 541.608L502.302 498.399C502.075 497.077 503.464 496.069 504.651 496.693L543.454 517.093C544.8 517.8 546.407 517.8 547.752 517.093L586.556 496.693C587.743 496.069 589.13 497.077 588.904 498.399L581.493 541.608C581.237 543.106 581.733 544.635 582.822 545.696L614.214 576.296C615.174 577.232 614.645 578.863 613.318 579.056L569.934 585.36C568.43 585.578 567.129 586.523 566.456 587.886L547.054 627.198Z" fill="#C898BF" stroke="white" stroke-width="3"/>
<path d="M535.054 494.198C534.46 495.401 532.745 495.401 532.152 494.198L512.75 454.886C512.078 453.523 510.777 452.578 509.273 452.36L465.889 446.056C464.562 445.863 464.032 444.232 464.992 443.296L496.385 412.696C497.473 411.635 497.97 410.106 497.713 408.608L490.302 365.399C490.075 364.077 491.464 363.069 492.651 363.693L531.454 384.093C532.8 384.8 534.407 384.8 535.752 384.093L574.556 363.693C575.743 363.069 577.13 364.077 576.904 365.399L569.493 408.608C569.237 410.106 569.733 411.635 570.822 412.696L602.214 443.296C603.174 444.232 602.645 445.863 601.318 446.056L557.934 452.36C556.43 452.578 555.129 453.523 554.456 454.886L535.054 494.198Z" fill="#E9A88F" stroke="white" stroke-width="3"/>
<path d="M403.152 576.198C403.746 577.401 405.461 577.401 406.055 576.198L425.456 536.886C426.129 535.523 427.429 534.578 428.934 534.36L472.317 528.056C473.645 527.863 474.174 526.232 473.214 525.296L441.821 494.696C440.733 493.635 440.236 492.106 440.493 490.608L447.904 447.399C448.131 446.077 446.743 445.069 445.556 445.693L406.752 466.093C405.407 466.8 403.799 466.8 402.454 466.093L363.65 445.693C362.463 445.069 361.076 446.077 361.303 447.399L368.713 490.608C368.97 492.106 368.473 493.635 367.385 494.696L335.992 525.296C335.032 526.232 335.562 527.863 336.889 528.056L380.272 534.36C381.777 534.578 383.077 535.523 383.75 536.886L403.152 576.198Z" fill="#A390C6" stroke="white" stroke-width="3"/>
<path d="M440.152 586.402C440.746 585.2 442.461 585.2 443.055 586.402L462.456 625.715C463.129 627.078 464.429 628.023 465.934 628.241L509.317 634.545C510.645 634.738 511.174 636.368 510.214 637.305L478.821 667.905C477.733 668.966 477.236 670.495 477.493 671.993L484.904 715.202C485.131 716.524 483.743 717.532 482.556 716.908L443.752 696.508C442.407 695.801 440.799 695.801 439.454 696.508L400.65 716.908C399.463 717.532 398.076 716.524 398.303 715.202L405.713 671.993C405.97 670.495 405.473 668.966 404.385 667.905L372.992 637.305C372.032 636.369 372.562 634.738 373.889 634.545L417.272 628.241C418.777 628.023 420.077 627.078 420.75 625.715L440.152 586.402Z" fill="#7E8ADF" stroke="white" stroke-width="3"/>
<path d="M673.381 428.524C673.92 427.159 675.853 427.159 676.392 428.524L689.354 461.359C690.239 463.601 692.699 464.785 695.003 464.079L728.757 453.741C730.16 453.312 731.364 454.822 730.633 456.095L713.044 486.702C711.843 488.791 712.451 491.452 714.438 492.813L743.566 512.759C744.777 513.588 744.347 515.472 742.896 515.693L708 521.024C705.618 521.388 703.917 523.523 704.092 525.926L706.659 561.134C706.766 562.598 705.024 563.436 703.946 562.439L678.021 538.48C676.251 536.845 673.521 536.845 671.752 538.48L645.826 562.439C644.748 563.436 643.008 562.598 643.114 561.134L645.682 525.926C645.857 523.523 644.155 521.389 641.773 521.024L606.876 515.693C605.425 515.471 604.996 513.588 606.207 512.759L635.334 492.813C637.322 491.452 637.929 488.791 636.729 486.702L619.14 456.095C618.409 454.822 619.613 453.311 621.017 453.741L654.771 464.079C657.074 464.785 659.533 463.6 660.418 461.359L673.381 428.524Z" fill="#F4CBB5" fill-opacity="0.9" stroke="white" stroke-width="3"/>
<path d="M642.606 581.144C643.254 580.286 644.542 580.286 645.189 581.144L659.655 600.306C660.752 601.759 662.601 602.432 664.376 602.023L687.774 596.643C688.822 596.402 689.808 597.231 689.753 598.304L688.518 622.281C688.424 624.1 689.407 625.804 691.029 626.632L712.412 637.551C713.369 638.039 713.593 639.307 712.861 640.094L696.502 657.668C695.261 659.001 694.919 660.938 695.629 662.615L704.991 684.724C705.41 685.713 704.767 686.829 703.7 686.961L679.872 689.907C678.065 690.131 676.557 691.396 676.023 693.137L668.984 716.091C668.669 717.118 667.458 717.559 666.557 716.975L646.409 703.915C644.881 702.925 642.914 702.925 641.386 703.915L621.238 716.975C620.337 717.559 619.127 717.118 618.812 716.091L611.771 693.137C611.238 691.396 609.73 690.131 607.923 689.907L584.096 686.961C583.029 686.829 582.385 685.713 582.804 684.724L592.166 662.615C592.876 660.938 592.535 659.001 591.294 657.668L574.935 640.094C574.203 639.307 574.426 638.04 575.383 637.551L596.766 626.632C598.387 625.804 599.372 624.1 599.278 622.281L598.042 598.304C597.987 597.231 598.973 596.402 600.021 596.643L623.42 602.023C625.195 602.431 627.043 601.759 628.141 600.306L642.606 581.144Z" fill="#FFB29A" stroke="white" stroke-width="3"/>
</g>
<defs>
<filter id="filter0_ddd_1_55" x="-8" y="-5" width="1096" height="1096" filterUnits="userSpaceOnUse" color-interpolation-filters="sRGB">
<feFlood flood-opacity="0" result="BackgroundImageFix"/>
<feColorMatrix in="SourceAlpha" type="matrix" values="0 0 0 0 0 0 0 0 0 0 0 0 0 0 0 0 0 0 127 0" result="hardAlpha"/>
<feOffset/>
<feGaussianBlur stdDeviation="0.25"/>
<feColorMatrix type="matrix" values="0 0 0 0 0 0 0 0 0 0 0 0 0 0 0 0 0 0 0.18 0"/>
<feBlend mode="normal" in2="BackgroundImageFix" result="effect1_dropShadow_1_55"/>
<feColorMatrix in="SourceAlpha" type="matrix" values="0 0 0 0 0 0 0 0 0 0 0 0 0 0 0 0 0 0 127 0" result="hardAlpha"/>
<feOffset dy="3"/>
<feGaussianBlur stdDeviation="4"/>
<feColorMatrix type="matrix" values="0 0 0 0 0 0 0 0 0 0 0 0 0 0 0 0 0 0 0.1 0"/>
<feBlend mode="normal" in2="effect1_dropShadow_1_55" result="effect2_dropShadow_1_55"/>
<feColorMatrix in="SourceAlpha" type="matrix" values="0 0 0 0 0 0 0 0 0 0 0 0 0 0 0 0 0 0 127 0" result="hardAlpha"/>
<feOffset dx="1" dy="3"/>
<feGaussianBlur stdDeviation="1.5"/>
<feColorMatrix type="matrix" values="0 0 0 0 0 0 0 0 0 0 0 0 0 0 0 0 0 0 0.1 0"/>
<feBlend mode="normal" in2="effect2_dropShadow_1_55" result="effect3_dropShadow_1_55"/>
<feBlend mode="normal" in="SourceGraphic" in2="effect3_dropShadow_1_55" result="shape"/>
</filter>
<linearGradient id="paint0_linear_1_55" x1="540" y1="0" x2="540" y2="1080" gradientUnits="userSpaceOnUse">
<stop stop-color="#C084FC"/>
<stop offset="1" stop-color="#67E8F9"/>
</linearGradient>
</defs>
</svg>
